# xmcd
#
# Track frame offsets: 
#        150
#        18146
#        35406
#        51636
#        78864
#        100224
#        116666
#        136391
#        152809
#        176359
#        194402
#
# Disc length: 2920 seconds
#
# Revision: 0
# Processed by: cddbd v1.5.2PL0 Copyright (c) Steve Scherf et al.
# Submitted via: ExactAudioCopyFreeDBPlugin 1.0
#
DISCID=8b0b660b
DTITLE=Bobby Rush - Down In Louisiana
DYEAR=2012
DGENRE=Blues
TTITLE0=Down In Louisiana
TTITLE1=You Just Like A Dresser
TTITLE2=I Ain't The One
TTITLE3=Tight Money
TTITLE4=Don't Your Cry
TTITLE5=Boogie In The Dark
TTITLE6=Raining In My Heart
TTITLE7=Rock This House
TTITLE8=What Is The Blues
TTITLE9=Bowlegged Woman
TTITLE10=Swing Low
EXTD=
EXTT0=
EXTT1=
EXTT2=
EXTT3=
EXTT4=
EXTT5=
EXTT6=
EXTT7=
EXTT8=
EXTT9=
EXTT10=
PLAYORDER=
